<svg xmlns="http://www.w3.org/2000/svg" width="48" height="48" viewBox="0 0 192 192">

  <style>
    @media (prefers-color-scheme: dark) {
      svg { filter: invert(0%) hue-rotate(0deg) saturate(100%) contrast(100%) brightness(1); }
    }
  </style><path fill="#FDDD13" d="M0 0h192v192H0z"/><path fill="#FEFEFE" d="M192 103v89H0v-88c5.1 2 8.9 4.5 13.4 7.6 2.6 1.7 2.6 1.7 5.2 3.5 1.8 1.2 3.7 2.5 5.6 3.8 3.9 2.6 7.7 5.2 11.6 7.9 2 1.3 4 2.7 6.1 4.1 11.6 7.8 23.3 15.6 35 23.3 1.7 1.2 3.3 2.3 5 3.4 1.5 1 3 1.9 4.5 2.9 3.6 2.5 3.6 2.5 5.8 4.4 1.8 1.3 1.8 1.3 4 1.1 4.1-1.5 7.3-3.8 10.9-6.2q2.25-1.65 4.8-3.3c1.6-1.1 3.3-2.3 5-3.4 3.2-2.3 6.5-4.5 9.7-6.7l4.8-3.3c6.5-4.4 13.1-8.8 19.6-13.1 2.1-1.4 4.1-2.7 6.2-4.1 4-2.7 8-5.4 12.1-8.1 1.5-1 1.5-1 3.1-2l6.3-4.2c1.5-1.1 1.5-1.1 3.1-2.1l2.7-1.8c1.6-1.1 3.2-2.2 4.8-3.4 1.7-1.3 1.7-1.3 2.7-1.3M0 0h192v87c-10.5-6.7-20.8-13.4-31.2-20.2-1.9-1.3-3.8-2.6-5.8-3.9-19.4-12.8-38.7-25.8-58-38.9-4.2 1.5-7.5 3.5-11.2 6-1.2.8-2.5 1.7-3.7 2.5-1.4.9-2.8 1.9-4.2 2.8-2.9 2-5.9 4-8.9 6-1.6 1.1-3.2 2.1-4.8 3.2-11.3 7.6-22.7 15-34.1 22.5-8.7 5.7-17.3 11.5-25.8 17.5C2 86 2 86 0 86z"/><path fill="#0535A8" d="M126 57c10.6 8.8 17.2 20.7 17.5 34.5-.1 16.8-4.1 29.6-16.5 41.4-11.4 9-25.3 13.3-39.7 10.8-8.3-1.8-14.8-5.3-21.3-10.7-.7-.6-1.4-1.1-2.1-1.7-11.6-10.3-15.7-25.5-15.2-40.4.9-14.7 9.1-26.8 20.3-35.9 17.8-12.5 39.8-10.5 57 2"/><path fill="#0535AA" d="M110.074 68.285c6.9 5.3 10.8 13.2 11.2 21.8 0 6.6-3.4 13.2-6.3 18.9.4.4.8.8 1.2 1.1 1.8 1.7 3.6 3.4 5.3 5.1.6.6 1.3 1.2 1.9 1.8 4.5 4.4 4.5 4.4 5 7.9-.1.7-.2 1.4-.4 2.1-2.7.5-4.4.5-6.6-1.2-1.8-1.7-3.5-3.5-5.2-5.3-.6-.6-1.2-1.2-1.8-1.9-1.5-1.5-2.9-3-4.4-4.6-.5.3-1 .6-1.6.9-7.7 4.4-18 5.1-26.4 2.2-8.7-3.9-13.5-10.2-16.3-19.3-2.2-9.1-.5-16.3 4.9-24 3.8-4.7 7.7-7.6 13.4-9.8.7-.3.7-.3 1.5-.6 8.4-2.3 17.4.4 24.6 4.9"/><path fill="#F3F6FA" d="M110.074 68.285c6.9 5.3 10.8 13.2 11.2 21.8 0 6.6-3.4 13.2-6.3 18.9.4.4.8.8 1.2 1.1 1.8 1.7 3.6 3.4 5.3 5.1.6.6 1.3 1.2 1.9 1.8 4.5 4.4 4.5 4.4 5 7.9-.1.7-.2 1.4-.4 2.1-2.7.5-4.4.5-6.6-1.2-1.8-1.7-3.5-3.5-5.2-5.3-.6-.6-1.2-1.2-1.8-1.9-1.5-1.5-2.9-3-4.4-4.6-.5.3-1 .6-1.6.9-7.7 4.4-18 5.1-26.4 2.2-8.7-3.9-13.5-10.2-16.3-19.3-2.2-9.1-.5-16.3 4.9-24 3.8-4.7 7.7-7.6 13.4-9.8.7-.3.7-.3 1.5-.6 8.4-2.3 17.4.4 24.6 4.9m-38.5 15.2c-1.7 7.6-.8 14 3.7 20.4 4.6 5.6 8.2 8.1 15.4 8.5 7.2.2 13-.7 18.1-6.4 5.4-7 6.4-13.3 5.2-22-2.5-6.8-7.3-11-13.8-13.7-12.7-4.4-22.1 2.1-28.6 13.2"/><path fill="#E8ECF4" d="M87 63c6.7-.4 11.9.1 18 3 .3 1.7.7 3.3 1 5l-2 2-9-4c.3-1.7.7-3.3 1-5h-9z"/><path fill="#1D418F" d="M104 47v1c-.5 0-.9.1-1.4.1-2.2.1-4.3.2-6.5.3l-2.2.2c-.8 0-1.5 0-2.2.1-1 0-1 0-2 .1-1.8.1-1.8.1-3.7 1.2-.7 2-.7 2-1 4-2.6.3-5.3.7-8 1 .3-1.6.7-3.3 1-5 8.3-4 17-3.3 26-3"/><path fill="#284FAF" d="M75 78c1.9 6.4 0 12.8-2 19-2.8-2.8-2.4-4.7-2.3-8.5.5-4 2.2-7.1 4.3-10.5"/><path fill="#2B4986" d="M81 141c18.2-.2 18.2-.2 27 1v1c-4.2.8-8.1 1.2-12.4 1.2h-1.7c-4.5-.1-8.6-.7-12.9-2.2z"/><path fill="#103799" d="M69 55c.7.3 1.3.7 2 1-4 6.9-4 6.9-8.1 8.1-.6.2-1.1.4-1.7.5L60 65c.9-1.1 1.9-2.2 2.8-3.3.5-.6 1.1-1.2 1.6-1.9 1.5-1.7 3-3.2 4.6-4.8"/><path fill="#2A4A88" d="M137 71c2.5 2.9 3.5 5.2 4 9h-3c-.3-3-.7-5.9-1-9"/></svg>